<svg width="26" height="26" fill="none" xmlns="http://www.w3.org/2000/svg"><path fill-rule="evenodd" clip-rule="evenodd" d="M23.379 0H2.989a2.559 2.559 0 0 0-2.55 2.55v20.397a2.559 2.559 0 0 0 2.55 2.55h20.39a2.553 2.553 0 0 0 2.55-2.55v-20.4A2.552 2.552 0 0 0 23.38 0Zm-10.19 7.648a5.1 5.1 0 1 1-5.1 5.1 5.11 5.11 0 0 1 5.1-5.101v.001Zm-9.56 15.3a.6.6 0 0 1-.64-.637V11.472h2.68a4.257 4.257 0 0 0-.13 1.275 7.645 7.645 0 0 0 15.29 0c.02-.428-.02-.858-.12-1.275h2.67v10.835a.6.6 0 0 1-.63.637H3.629v.004ZM23.379 5.74a.6.6 0 0 1-.63.637h-2.55a.602.602 0 0 1-.64-.637V3.19a.6.6 0 0 1 .64-.636h2.55a.6.6 0 0 1 .63.636v2.55Z" fill="#37373F"/></svg>